<?xml version="1.0" encoding="UTF-8"?>
<svg version="1.1" xmlns="http://www.w3.org/2000/svg" width="512" height="512">
<path d="M0 0 C6.09530887 4.57148165 11.01543295 10.23457092 15.9375 16 C17.11505859 17.36705078 17.11505859 17.36705078 18.31640625 18.76171875 C38.9375 43.32771739 38.9375 43.32771739 38.9375 57 C39.93910156 56.65066406 40.94070312 56.30132812 41.97265625 55.94140625 C43.31499252 55.48144487 44.6574468 55.02182781 46 54.5625 C46.65677734 54.33240234 47.31355469 54.10230469 47.99023438 53.86523438 C63.79465905 48.49328707 78.67258203 51.0882352 94.31396484 55.29882812 C96.8345411 55.97248297 99.36192928 56.60768911 101.89453125 57.234375 C123.01607311 62.59146123 123.01607311 62.59146123 127.234375 68.95703125 C127.9375 71 127.9375 71 127.6875 74.625 C127.521812 79.5588205 129.84205065 82.6546222 132.48828125 86.6640625 C133.9375 89 133.9375 89 135 92.5 C135.69056173 95.23246258 135.69056173 95.23246258 138.375 96.125 C139.6434375 96.558125 139.6434375 96.558125 140.9375 97 C143.05721387 98.82733955 143.83008489 100.16417615 144.1875 102.9453125 C144.475951 113.29349205 140.98350487 121.77778191 136.61694336 130.98266602 C135.75888086 132.7937554 134.91742731 134.61268342 134.07617188 136.43164062 C124.8697488 156.07414839 114.45025674 171.12053035 94.24609375 180.2109375 C91.9375 181 91.9375 181 88.9375 181 C89.64326172 182.35931641 89.64326172 182.35931641 90.36328125 183.74609375 C90.99251843 184.9763933 91.62140576 186.20687183 92.25 187.4375 C92.7130957 188.32598633 92.7130957 188.32598633 93.18554688 189.23242188 C95.61268498 194.01005162 97.35549607 198.88434057 98.9375 204 C101.00097747 201.62584775 103.06310001 199.25052232 105.125 196.875 C105.70314453 196.20984375 106.28128906 195.5446875 106.87695312 194.859375 C107.44736328 194.20195312 108.01777344 193.54453125 108.60546875 192.8671875 C109.17313965 192.21379395 109.74081055 191.56040039 110.32568359 190.88720703 C111.77060709 189.19540779 113.16252715 187.47254521 114.55078125 185.734375 C121.98055774 177.22235611 133.19870757 172.79931189 144.265625 171.65625 C158.66580538 171.2467662 170.04274523 175.7830085 180.43359375 185.5234375 C194.93082476 199.86235242 207.82826481 216.30575497 213.9375 236 C214.55753906 235.73445312 215.17757813 235.46890625 215.81640625 235.1953125 C233.79129024 228.02629036 250.7655633 229.65607289 269.0625 234.75 C270.32964844 235.08515625 271.59679687 235.4203125 272.90234375 235.765625 C288.04731917 239.88331142 302.13732977 244.68892098 310.69140625 258.6953125 C317.22897068 270.78673261 318.87996712 282.85089666 316.27734375 296.44921875 C315.07264277 300.09996657 313.5867843 303.53523026 311.9375 307 C311.47553223 307.98548828 311.01356445 308.97097656 310.53759766 309.98632812 C308.9037368 313.44080562 307.24054582 316.87927604 305.5625 320.3125 C304.75099487 321.97744507 304.75099487 321.97744507 303.9230957 323.67602539 C295.39499884 340.6366555 282.94407155 354.03900401 264.67602539 360.33325195 C261.776914 361.27569609 258.86717297 362.15716186 255.9375 363 C256.4428125 364.05960937 256.948125 365.11921875 257.46875 366.2109375 C258.12520131 367.59886314 258.78144033 368.98688919 259.4375 370.375 C259.77136719 371.07367188 260.10523438 371.77234375 260.44921875 372.4921875 C262.9375 377.7734375 262.9375 377.7734375 262.9375 380 C263.68 379.9175 264.4225 379.835 265.1875 379.75 C267.9375 380 267.9375 380 270.03515625 381.57421875 C272.52235066 384.74577466 272.70829749 387.07288287 273.125 391.0625 C273.19831543 391.73442383 273.27163086 392.40634766 273.34716797 393.09863281 C273.55781069 395.06431882 273.74809236 397.03215433 273.9375 399 C274.04964844 399.91136719 274.16179687 400.82273437 274.27734375 401.76171875 C276.30056207 419.41637721 276.07675465 435.26114121 265.41015625 450.12890625 C261.04863381 455.53719408 256.11122858 458.89476152 249.9375 462 C249.174375 462.41507812 248.41125 462.83015625 247.625 463.2578125 C229.79791206 471.42856114 198.85443877 466.53753752 180.9375 460 C168.76681725 454.71916138 155.40855654 445.3309006 149.5 433 C149.314375 432.34 149.12875 431.68 148.9375 431 C146.32855079 433.40826081 144.19937869 435.94841147 142.125 438.8125 C131.27766058 453.38355295 115.58624184 461.47317474 97.80712891 464.34399414 C78.27285399 467.03547413 54.91994098 470.1805955 38.0625 457.81640625 C29.4975303 450.49524649 24.48139747 442.6316924 20.9375 432 C17.99923061 433.54020343 15.06195673 435.08229508 12.125 436.625 C11.2594751 437.0792334 10.3939502 437.5334668 9.50219727 438.00146484 C3.91483856 440.94009064 -1.63172028 443.93456746 -7.12890625 447.0390625 C-9.0625 448 -9.0625 448 -11.0625 448 C-11.06614563 448.6403569 -11.06979126 449.28071381 -11.07354736 449.94047546 C-11.11537198 456.60806513 -11.18471772 463.27496642 -11.27001953 469.94213867 C-11.29823752 472.43002435 -11.31944787 474.91799982 -11.33349609 477.40600586 C-11.35491321 480.98337807 -11.4015602 484.55966973 -11.453125 488.13671875 C-11.45435364 489.24834885 -11.45558228 490.35997894 -11.45684814 491.5052948 C-11.60324606 499.23182217 -11.60324606 499.23182217 -13.97558594 503.19995117 C-16.86719117 505.69407909 -18.47617124 505.71970619 -22.15625 505.5 C-24.0625 505 -24.0625 505 -26.5625 502.625 C-28.0625 500 -28.0625 500 -28.0625 498 C-32.6825 498 -37.3025 498 -42.0625 498 C-42.7225 499.65 -43.3825 501.3 -44.0625 503 C-46.60981042 505.54731042 -48.50765279 505.35323144 -51.9921875 505.55859375 C-55.45009042 504.6256124 -56.24496636 503.08474487 -58.0625 500 C-58.65690752 495.93315828 -58.59555317 491.89284168 -58.56640625 487.7890625 C-58.5805381 485.98856949 -58.5805381 485.98856949 -58.59495544 484.15170288 C-58.62362454 480.30929604 -58.62668552 476.46750508 -58.625 472.625 C-58.64854213 447.92459818 -61.91877463 428.48034326 -69.875 405.125 C-70.63729412 402.86532049 -71.39884024 400.60538851 -72.15966797 398.34521484 C-74.44760474 391.55903224 -76.75323883 384.77895061 -79.0625 378 C-79.74694762 375.98829488 -80.43135674 373.97657667 -81.11572266 371.96484375 C-82.96987211 366.51716631 -84.82766721 361.07073954 -86.6875 355.625 C-86.97656219 354.77852905 -87.26562439 353.93205811 -87.56344604 353.05993652 C-90.1860323 345.38264908 -92.81258859 337.7072098 -95.484375 330.046875 C-96.13558108 328.15630662 -96.78664124 326.26568797 -97.4375 324.375 C-97.85829834 323.19478271 -97.85829834 323.19478271 -98.28759766 321.99072266 C-99.81087968 317.53004344 -100.66624616 313.70466345 -100.0625 309 C-98.0625 306.5625 -98.0625 306.5625 -96.0625 305 C-96.4234375 303.95199219 -96.784375 302.90398437 -97.15625 301.82421875 C-97.62523818 300.44539349 -98.0939751 299.06648275 -98.5625 297.6875 C-98.80097656 296.99720703 -99.03945312 296.30691406 -99.28515625 295.59570312 C-100.29458263 292.61068511 -101.0625 290.17341086 -101.0625 287 C-101.92230469 287.04640625 -102.78210938 287.0928125 -103.66796875 287.140625 C-118.53742435 287.59465418 -129.57564339 283.83506602 -140.50390625 273.74609375 C-150.03224003 263.96660125 -153.30748152 253.02127208 -153.31347656 239.63134766 C-153.05399087 220.6770975 -151.78251053 198.21181921 -141.0625 182 C-142.62097656 181.27296875 -142.62097656 181.27296875 -144.2109375 180.53125 C-172.27856207 167.15961664 -182.87420629 144.59349449 -194.35546875 116.87890625 C-197.25376873 105.07754115 -195.98946684 91.57000636 -190.0625 81 C-180.86634361 66.58322276 -167.99495213 61.16531302 -152.02075195 56.83251953 C-149.86533715 56.24737677 -147.71479436 55.64646186 -145.56445312 55.04296875 C-128.07344732 50.19689948 -109.60477407 48.37949846 -92.57421875 56.1328125 C-91.82591797 56.56207031 -91.82591797 56.56207031 -91.0625 57 C-90.7840625 55.205625 -90.7840625 55.205625 -90.5 53.375 C-87.67165521 41.0155207 -80.72735522 31.74600581 -72.43798828 22.54931641 C-70.25729685 20.09303884 -68.1964217 17.54917959 -66.125 15 C-65.43535156 14.154375 -64.74570313 13.30875 -64.03515625 12.4375 C-62.6960795 10.78287844 -61.38420377 9.10594354 -60.09765625 7.41015625 C-45.51438636 -9.86024207 -18.30842112 -11.73690319 0 0 Z M-26.0625 251 C-26.63097656 251.78503906 -27.19945312 252.57007813 -27.78515625 253.37890625 C-37.27369561 266.28902241 -46.94302392 274.98954161 -62.0625 281 C-61.44225416 287.32815421 -59.55118818 292.97397014 -57.4765625 298.96484375 C-57.1074324 300.04724838 -56.73830231 301.12965302 -56.35798645 302.24485779 C-55.14035939 305.81110962 -53.91407313 309.37431617 -52.6875 312.9375 C-51.62124304 316.05098987 -50.55616471 319.16488018 -49.49135685 322.27886581 C-48.38325585 325.51911769 -47.27446898 328.75913005 -46.16389465 331.99853516 C-43.18492051 340.69155888 -40.23731375 349.39471044 -37.31124115 358.10567665 C-36.21923853 361.35553939 -35.12484571 364.60459726 -34.03076172 367.85375977 C-32.76777746 371.60457684 -31.5063954 375.35588676 -30.25054932 379.10910034 C-29.08777143 382.58238176 -27.91775606 386.05314492 -26.74609375 389.5234375 C-26.40109329 390.5603624 -26.05609283 391.59728729 -25.70063782 392.66563416 C-25.22125008 394.07903831 -25.22125008 394.07903831 -24.73217773 395.52099609 C-24.45639389 396.34248138 -24.18061005 397.16396667 -23.89646912 398.01034546 C-23.13451809 400.18050987 -23.13451809 400.18050987 -21.0625 402 C-19.15857606 401.02397982 -17.25501008 400.04726136 -15.3515625 399.0703125 C-14.75609619 398.76475937 -14.16062988 398.45920624 -13.54711914 398.14439392 C-10.25368302 396.45204925 -6.96542045 394.7505225 -3.68505859 393.03295898 C-2.35257947 392.33569752 -1.02006005 391.63851305 0.3125 390.94140625 C0.97220795 390.59607346 1.63191589 390.25074066 2.31161499 389.89494324 C6.04453838 387.95127112 9.80181776 386.10196023 13.625 384.33984375 C22.94255112 379.90309234 27.73674583 376.0692325 31.36865234 366.17993164 C31.93402945 364.46671137 32.44244434 362.73484722 32.9375 361 C31.37902344 360.29037109 31.37902344 360.29037109 29.7890625 359.56640625 C20.95653245 355.42638976 13.74726984 351.1400945 6.9375 344 C6.02484375 343.09894531 6.02484375 343.09894531 5.09375 342.1796875 C-8.58701072 327.81488874 -20.67775734 303.33772489 -21.4375 283.5 C-21.25382623 276.83940894 -19.68295898 270.14554313 -17.2578125 263.94140625 C-16.85164968 261.83758793 -16.85164968 261.83758793 -18.42578125 259.7109375 C-19.06902344 258.94007813 -19.71226562 258.16921875 -20.375 257.375 C-21.01050781 256.59898437 -21.64601562 255.82296875 -22.30078125 255.0234375 C-23.5063957 253.63871846 -24.76424097 252.29825903 -26.0625 251 Z " fill="#010202" transform="translate(195.0625,7)"/>
<path d="M0 0 C5.72666515 15.39234407 11.01833555 30.91351495 16.1875 46.5 C20.96866237 60.91117369 25.76901418 75.3147671 30.66763306 89.68652344 C31.25317674 91.40479451 31.83782766 93.12337014 32.42147827 94.84228516 C35.72887585 104.57895421 39.1587806 114.25295648 42.81616211 123.86401367 C43.5829055 125.89511675 44.31346703 127.9404011 45 130 C49.75606216 132.8536373 54.51882159 133.64764009 60 133 C62.74154442 132.09580722 65.19169064 130.80716822 67.71875 129.421875 C68.42092651 129.05402893 69.12310303 128.68618286 69.84655762 128.30718994 C72.0728094 127.1366539 74.28630011 125.94407388 76.5 124.75 C77.98487077 123.96331994 79.47054253 123.17814978 80.95703125 122.39453125 C83.70631316 120.94395003 86.44986848 119.48344512 89.18945312 118.01464844 C93.08956565 115.93419792 97.03944831 113.96268317 101 112 C102.41254006 127.04507593 102.41254006 127.04507593 98.67053223 131.62835693 C94.34852832 135.09193256 89.20436399 137.09172429 84.125 139.1875 C82.62973719 139.85842215 81.13749614 140.53612165 79.6484375 141.22070312 C77.46516657 142.2220155 75.28130194 143.21999762 73.08746338 144.19796753 C61.13714533 149.31953217 61.13714533 149.31953217 52.76602173 158.80464172 C51.13797505 163.470496 51.3959734 168.38800513 51.390625 173.27734375 C51.37408875 174.4438295 51.35755249 175.61031525 51.34051514 176.81214905 C51.29211288 180.52065336 51.27068033 184.22874777 51.25 187.9375 C51.221834 190.45900491 51.19190569 192.98049079 51.16015625 195.50195312 C51.08635523 201.66793501 51.0367325 207.83369037 51 214 C46.05 214 41.1 214 36 214 C35.34 215.65 34.68 217.3 34 219 C31.45268958 221.54731042 29.55484721 221.35323144 26.0703125 221.55859375 C22.61240958 220.6256124 21.81753364 219.08474487 20 216 C19.40559248 211.93315828 19.46694683 207.89284168 19.49609375 203.7890625 C19.48667252 202.58873383 19.47725128 201.38840515 19.46754456 200.15170288 C19.43887546 196.30929604 19.43581448 192.46750508 19.4375 188.625 C19.41395787 163.92459818 16.14372537 144.48034326 8.1875 121.125 C7.42520588 118.86532049 6.66365976 116.60538851 5.90283203 114.34521484 C3.61489526 107.55903224 1.30926117 100.77895061 -1 94 C-1.68444762 91.98829488 -2.36885674 89.97657667 -3.05322266 87.96484375 C-4.90737211 82.51716631 -6.76516721 77.07073954 -8.625 71.625 C-8.91406219 70.77852905 -9.20312439 69.93205811 -9.50094604 69.05993652 C-12.1235323 61.38264908 -14.75008859 53.7072098 -17.421875 46.046875 C-18.07308108 44.15630662 -18.72414124 42.26568797 -19.375 40.375 C-19.65553223 39.58818848 -19.93606445 38.80137695 -20.22509766 37.99072266 C-21.74837968 33.53004344 -22.60374616 29.70466345 -22 25 C-20 22.5625 -20 22.5625 -18 21 C-18.3609375 19.96359375 -18.721875 18.9271875 -19.09375 17.859375 C-19.5628193 16.48969264 -20.03155166 15.11989486 -20.5 13.75 C-20.85771484 12.72712891 -20.85771484 12.72712891 -21.22265625 11.68359375 C-22.39421287 8.23586997 -23 5.68297096 -23 2 C-19.20929827 0.84925126 -15.44012406 0.68181872 -11.5 0.4375 C-9.53546875 0.31181641 -9.53546875 0.31181641 -7.53125 0.18359375 C-5.02347459 0.05321162 -2.51116248 0 0 0 Z " fill="#6BD29F" transform="translate(117,291)"/>
<path d="M0 0 C0.33 0 0.66 0 1 0 C1.01417969 0.556875 1.02835937 1.11375 1.04296875 1.6875 C1.51735586 9.27769379 4.19614887 14.71219134 9.875 19.8125 C16.64336183 24.55035328 21.95089026 25.43727558 30 25 C29.6390625 25.57105469 29.278125 26.14210937 28.90625 26.73046875 C24.84532072 33.82581463 23.90012782 39.89622478 25 48 C26.77137438 54.3873676 30.7905161 58.13678722 36 62 C33.80120236 64.19879764 32.09435687 64.86011278 29.25 66.0625 C23.1749164 69.01652039 19.61296282 73.46232748 17.3515625 79.82421875 C16.84197591 82.97799352 16.90794844 86.05843111 16.9375 89.25 C16.94652344 90.51328125 16.95554687 91.7765625 16.96484375 93.078125 C16.97644531 94.04234375 16.98804688 95.0065625 17 96 C16.0925 95.67 15.185 95.34 14.25 95 C7.61401143 93.14246162 0.01063463 92.70673634 -6.375 95.5625 C-10.44989574 97.9430524 -13.21293533 101.25102805 -16 105 C-16.55042969 105.7321875 -17.10085937 106.464375 -17.66796875 107.21875 C-18.10753906 107.8065625 -18.54710937 108.394375 -19 109 C-19.51046875 108.11248047 -19.51046875 108.11248047 -20.03125 107.20703125 C-24.06954181 100.62332678 -28.19502427 97.40248787 -35 94 C-42.36783638 93.41057309 -48.28309571 93.89989033 -55 97 C-54.84144531 96.28457031 -54.68289062 95.56914062 -54.51953125 94.83203125 C-53.24994598 87.91135964 -52.97584582 81.06950328 -56.609375 74.8515625 C-61.36259688 68.52283449 -66.20932236 65.25207319 -74 64 C-74 63.34 -74 62.68 -74 62 C-73.0925 61.4225 -72.185 60.845 -71.25 60.25 C-66.06853671 56.66283311 -63.40741239 52.09878702 -62 46 C-61.29626949 39.66642545 -61.86949661 35.11001963 -65.125 29.59375 C-66 28 -66 28 -66 26 C-64.72125 25.938125 -63.4425 25.87625 -62.125 25.8125 C-55.62905454 25.05549218 -49.74048293 22.79698773 -45.10546875 18.06640625 C-40.92245077 12.68242447 -38.9431569 7.7592911 -38 1 C-37.40832031 1.40992187 -36.81664062 1.81984375 -36.20703125 2.2421875 C-35.41683594 2.78101562 -34.62664062 3.31984375 -33.8125 3.875 C-33.03519531 4.40867187 -32.25789063 4.94234375 -31.45703125 5.4921875 C-25.67680801 9.03935153 -20.68129367 9.80413787 -14 9 C-8.07768471 7.26914956 -4.06131506 4.56897945 0 0 Z " fill="#FBE6D5" transform="translate(188,108)"/>
<path d="M0 0 C0.66 0 1.32 0 2 0 C2.7425 0.763125 3.485 1.52625 4.25 2.3125 C9.05339143 7.00672345 12.72910735 8.20727277 19.375 8.4375 C27.71578046 8.23800525 32.79269098 5.43139539 39 0 C39.17015625 0.72445313 39.3403125 1.44890625 39.515625 2.1953125 C41.95458348 11.92520004 45.45333825 17.61226867 54 23 C57.00778521 24.00259507 59.53820647 24.30314642 62.6875 24.5625 C63.68136719 24.64628906 64.67523438 24.73007812 65.69921875 24.81640625 C66.83810547 24.90728516 66.83810547 24.90728516 68 25 C67.58427734 25.81404297 67.58427734 25.81404297 67.16015625 26.64453125 C66.61681641 27.71767578 66.61681641 27.71767578 66.0625 28.8125 C65.70285156 29.52019531 65.34320313 30.22789062 64.97265625 30.95703125 C61.93956188 37.32774755 62.21616903 43.53509127 64.5 50.125 C66.79460816 55.44583051 70.39163608 58.62202451 75 62 C72 64 72 64 68.6875 65.3125 C62.03166004 68.16299686 58.36514255 71.86241541 55.68359375 78.52734375 C54.10847441 84.22477542 54.48330664 90.31239988 56 96 C55.05125 95.505 54.1025 95.01 53.125 94.5 C47.08480133 91.93749147 40.76788295 92.15047974 34.625 94.3125 C31.68496893 95.68113515 29.49206103 96.98718147 27 99 C26.34 99 25.68 99 25 99 C24.731875 99.556875 24.46375 100.11375 24.1875 100.6875 C22.89877353 103.19712523 21.47073522 105.59334236 20 108 C19.62875 107.484375 19.2575 106.96875 18.875 106.4375 C18.25625 105.633125 17.6375 104.82875 17 104 C16.60941406 103.44441406 16.21882813 102.88882813 15.81640625 102.31640625 C11.79853841 97.02374748 7.43780611 94.58337794 1 93 C-5.04848667 92.28788309 -10.27860404 93.00994923 -16 95 C-15.96519531 94.0821875 -15.93039062 93.164375 -15.89453125 92.21875 C-15.47941358 80.78578182 -15.47941358 80.78578182 -20.6640625 71.0703125 C-25.25317255 66.66403552 -29.85634676 64.49324905 -36 63 C-35.2575 62.443125 -34.515 61.88625 -33.75 61.3125 C-28.45804359 56.86244575 -24.47642407 51.66116874 -23.56640625 44.66796875 C-23.55802634 37.20147206 -24.15624782 31.4863318 -28 25 C-27.16597656 24.92523438 -26.33195312 24.85046875 -25.47265625 24.7734375 C-16.07359134 23.67526497 -9.95944391 21.36554072 -3.5625 14.3125 C-1.38329098 9.69257687 -0.68095682 5.03549646 0 0 Z " fill="#FAE6D5" transform="translate(323,288)"/>
<path d="M0 0 C1.34094727 0.00253784 1.34094727 0.00253784 2.70898438 0.00512695 C17.62172866 0.39299321 36.71551128 5.20617419 49.25 13.5625 C51.5931213 13.30688677 53.92843403 12.96979228 56.25 12.5625 C57.57 12.5625 58.89 12.5625 60.25 12.5625 C64.37136227 17.46278001 66.89993646 23.35220774 68.25 29.5625 C67.280625 30.18125 66.31125 30.8 65.3125 31.4375 C62.22164638 33.21928846 62.22164638 33.21928846 61.25 35.5625 C61.01139355 37.3081235 60.78882443 39.05595114 60.57421875 40.8046875 C59.45598319 47.71198217 56.95014129 53.60136352 53.92944336 59.88134766 C53.06404466 61.68428192 52.22630058 63.50040377 51.38867188 65.31640625 C43.16898127 82.74864208 33.99781048 93.19544199 16.25 100.5625 C10.87102325 102.45881723 6.18714314 102.84382636 0.5625 102.75 C-0.18322266 102.74935547 -0.92894531 102.74871094 -1.69726562 102.74804688 C-5.18323109 102.72005964 -8.43246047 102.67991111 -11.75 101.5625 C-12.375 99.70703125 -12.375 99.70703125 -12.75 97.375 C-13.72477906 93.96327328 -14.38748959 92.81104756 -17.359375 90.7734375 C-20.45515315 89.27175407 -23.5793838 87.8979275 -26.75 86.5625 C-30.56153675 84.63708453 -33.32215218 83.20427173 -35.75 79.5625 C-35.75 78.2425 -35.75 76.9225 -35.75 75.5625 C-31.31546943 73.52871219 -26.88021519 71.49651229 -22.44433594 69.46566772 C-20.85940217 68.73990988 -19.27460343 68.01385709 -17.68994141 67.2875061 C-9.17108519 63.38357441 -0.64569176 59.49818356 7.92578125 55.7109375 C8.93109138 55.26559914 8.93109138 55.26559914 9.95671082 54.81126404 C13.11685752 53.41168178 16.27969938 52.01896824 19.44799805 50.63793945 C20.56859619 50.14253662 21.68919434 49.64713379 22.84375 49.13671875 C23.82021484 48.70963623 24.79667969 48.28255371 25.80273438 47.8425293 C28.15490462 46.61223913 29.64533647 45.66417446 31.25 43.5625 C31.83333333 40.0625 31.83333333 40.0625 31.25 36.5625 C29.80851025 34.37702316 29.80851025 34.37702316 27.25 33.5625 C21.21111344 33.92572331 16.51548481 36.0045651 11.10546875 38.59765625 C10.25447098 38.99577011 9.40347321 39.39388397 8.52668762 39.80406189 C5.82609174 41.06899176 3.13156533 42.3462279 0.4375 43.625 C-2.27527163 44.90539748 -4.98924346 46.18311982 -7.70524597 47.45664978 C-9.39118367 48.2479178 -11.07510319 49.04350284 -12.75679016 49.84376526 C-13.51485458 50.2009111 -14.27291901 50.55805695 -15.05395508 50.92602539 C-15.72123123 51.24277725 -16.38850739 51.55952911 -17.07600403 51.88587952 C-18.75 52.5625 -18.75 52.5625 -20.75 52.5625 C-20.95625 51.49 -21.1625 50.4175 -21.375 49.3125 C-22.47058677 45.46789126 -22.47058677 45.46789126 -25.3125 43.125 C-29.64042094 41.15776321 -33.07957607 41.18886609 -37.75 41.5625 C-36.64958569 38.7691406 -35.50785046 36.00450323 -34.3125 33.25 C-31.60831896 26.91620707 -29.5228647 21.37439274 -28.875 14.4375 C-28.20805432 9.10193452 -28.20805432 9.10193452 -26.2109375 6.75 C-18.62139004 1.67014353 -8.96450486 -0.02517144 0 0 Z " fill="#88C7FB" transform="translate(262.75,73.4375)"/>
<path d="M0 0 C1.06476563 0.40992187 2.12953125 0.81984375 3.2265625 1.2421875 C6 3 6 3 7.06640625 5.86328125 C7.31197266 7.57064453 7.31197266 7.57064453 7.5625 9.3125 C9.28171613 19.12932584 12.40604422 28.13259698 17 37 C16.02160156 36.91298828 16.02160156 36.91298828 15.0234375 36.82421875 C8.86160961 36.46294987 8.86160961 36.46294987 3.5 39.125 C0.93020832 42.08026043 -0.11979321 44.2151108 -1 48 C-6.06747342 46.44933609 -10.72902105 44.34937615 -15.50390625 42.0859375 C-17.1476146 41.31734069 -18.79150018 40.54912282 -20.43554688 39.78125 C-23.00711776 38.57608 -25.57721148 37.36803866 -28.14428711 36.15332031 C-30.63524471 34.97645998 -33.13154149 33.81162642 -35.62890625 32.6484375 C-36.39360733 32.28285736 -37.15830841 31.91727722 -37.94618225 31.5406189 C-43.08273383 29.16194471 -46.45531971 28.15177324 -52 30 C-52.2475 31.2375 -52.495 32.475 -52.75 33.75 C-52.88921875 34.44609375 -53.0284375 35.1421875 -53.171875 35.859375 C-52.9159702 39.04655292 -51.38558349 39.93286905 -49 42 C-46.0561197 43.6800899 -46.0561197 43.6800899 -42.69921875 45.1796875 C-42.07796112 45.46923309 -41.45670349 45.75877869 -40.81661987 46.05709839 C-38.77733203 47.00474837 -36.73248572 47.93971832 -34.6875 48.875 C-33.26715426 49.53344141 -31.8471555 50.19263177 -30.42749023 50.85253906 C-22.98922525 54.29988669 -15.5187199 57.67081939 -8.0234375 60.9921875 C-6.58893742 61.63034603 -5.15444829 62.26852919 -3.7199707 62.90673828 C-0.98196222 64.12422531 1.76228245 65.32592815 4.51098633 66.51904297 C5.75621091 67.06956018 7.00125682 67.62048179 8.24609375 68.171875 C9.33591553 68.6472168 10.4257373 69.12255859 11.54858398 69.61230469 C14 71 14 71 15 74 C13.95041824 76.75243018 12.90191409 78.47790791 10.31298828 79.9765625 C8.25037713 80.88667366 6.17395712 81.70985759 4.0625 82.5 C-1.27008606 84.50631951 -4.82589992 85.98287407 -8 91 C-9.25556887 94.17921787 -9.25556887 94.17921787 -10 97 C-23.56417345 100.2146307 -36.25547024 97.9868307 -48.25 91.1875 C-61.48399577 82.67539392 -67.71726213 71.21185639 -74.3125 57.1875 C-74.83650391 56.09501953 -75.36050781 55.00253906 -75.90039062 53.87695312 C-80.78775484 43.59534056 -84.6492681 34.14260344 -80.9375 22.734375 C-76.44975239 13.0271818 -70.73325569 7.81693601 -60.88134766 4.02148438 C-41.39550719 -2.88656142 -19.73003388 -9.06187424 0 0 Z " fill="#88C7FC" transform="translate(97,78)"/>
<path d="M0 0 C0.75796875 0.23074219 1.5159375 0.46148437 2.296875 0.69921875 C4.1875 1.4375 4.1875 1.4375 7 4 C7.76469042 7.08640111 8.09204012 10.10624161 8.41015625 13.26953125 C9.46039457 19.91176695 12.33758037 25.86485912 15 32 C15.67276716 33.6642135 16.34206835 35.32986582 17 37 C16.33613281 37.04898438 15.67226563 37.09796875 14.98828125 37.1484375 C8.12267215 37.44453524 8.12267215 37.44453524 2 40 C0.96523431 42.6772509 0.50621366 45.14679573 0 48 C-4.90164793 47.35237294 -8.93353433 45.30335021 -13.3359375 43.18359375 C-14.97374426 42.41165502 -16.61177204 41.64018508 -18.25 40.86914062 C-20.81553909 39.6543893 -23.37894249 38.43560948 -25.93847656 37.20825195 C-28.4196463 36.02136689 -30.90827946 34.85147778 -33.3984375 33.68359375 C-34.15595306 33.31487656 -34.91346863 32.94615936 -35.69393921 32.56626892 C-40.30381198 30.4200151 -43.80558708 29.49371953 -49 30 C-51.06402685 30.98048938 -51.06402685 30.98048938 -52 33 C-52.5 36 -52.5 36 -52 39 C-49.95195666 41.51591873 -47.74231383 42.7945357 -44.8359375 44.171875 C-43.97685791 44.58171631 -43.11777832 44.99155762 -42.23266602 45.41381836 C-41.28963623 45.8547583 -40.34660645 46.29569824 -39.375 46.75 C-38.38749756 47.21736572 -37.39999512 47.68473145 -36.38256836 48.16625977 C-25.73125603 53.18012076 -15.00520462 58.03439802 -4.27294922 62.87207031 C2.21282451 65.79859196 8.67176806 68.74198123 15 72 C14.72014388 75.35827347 14.33240748 76.69086701 11.82421875 79.0234375 C8.92648124 81.05145297 6.31806284 82.18151311 3 83.375 C-2.28935913 85.49594843 -5.04912292 87.11578966 -8 92 C-8.86542699 94.72113503 -8.86542699 94.72113503 -9 97 C-21.21548065 100.37744209 -34.81004305 98.62458154 -46 93 C-48.95074486 91.24498182 -51.46909684 89.31282081 -54 87 C-54.57878906 86.51144531 -55.15757812 86.02289063 -55.75390625 85.51953125 C-67.0961709 75.24298274 -80.14295328 52.46014074 -81.203125 37.046875 C-81.33972615 27.43926051 -80.07128716 20.75775581 -74 13 C-66.20527321 5.04976744 -56.97140512 3.04095347 -46.4375 0.375 C-45.23158203 0.06304687 -44.02566406 -0.24890625 -42.78320312 -0.5703125 C-27.70184081 -4.43433907 -14.83159616 -5.73407338 0 0 Z " fill="#88C7FC" transform="translate(270,257)"/>
<path d="M0 0 C7.08847628 4.24780898 14.20530492 10.54132513 16.578125 18.75 C19.14137816 32.4206835 14.02251823 42.07065284 8 54 C7.15172841 55.74188797 6.30406583 57.48407267 5.45703125 59.2265625 C-2.42611389 75.13793197 -11.96429349 84.83680377 -29 91 C-33.81414415 92.33194223 -38.67017585 92.14752193 -43.625 92.125 C-44.91277344 92.13080078 -44.91277344 92.13080078 -46.2265625 92.13671875 C-47.0515625 92.13542969 -47.8765625 92.13414062 -48.7265625 92.1328125 C-49.47502441 92.13168457 -50.22348633 92.13055664 -50.99462891 92.12939453 C-53 92 -53 92 -56 91 C-56.226875 89.7625 -56.45375 88.525 -56.6875 87.25 C-57.47265865 83.67529395 -58.41239092 82.23002987 -61.5 80.25 C-64.65071714 78.52515485 -67.88809834 77.25325328 -71.25 76 C-75.3800024 74.43059909 -77.75894689 72.97277597 -80 69 C-80 68.01 -80 67.02 -80 66 C-65.25510418 58.8327517 -50.39790049 51.94633782 -35.44946289 45.21655273 C-29.65911654 42.60680767 -23.87091185 39.98994727 -18.14453125 37.2421875 C-16.9994812 36.69473877 -16.9994812 36.69473877 -15.83129883 36.13623047 C-13.68861888 34.98204813 -13.68861888 34.98204813 -12 32 C-12.34445598 27.49149818 -12.34445598 27.49149818 -15 24 C-20.97918545 23.47130993 -25.0991596 24.46334672 -30.46484375 27.17578125 C-31.14245255 27.5016069 -31.82006134 27.82743256 -32.51820374 28.16313171 C-34.66537888 29.19842405 -36.80162707 30.25411487 -38.9375 31.3125 C-41.75543662 32.69124529 -44.57758734 34.06106745 -47.40234375 35.42578125 C-48.07131683 35.75023224 -48.74028992 36.07468323 -49.42953491 36.40896606 C-54.20365594 38.69569238 -58.92327911 40.51952609 -64 42 C-64.37125 40.9275 -64.7425 39.855 -65.125 38.75 C-66.86790148 34.71596043 -69.00807098 32.95682795 -73 31 C-76.51689744 30.65520613 -78.64870516 30.88290172 -82 32 C-81.042754 29.51906425 -80.05609009 27.11046314 -78.8515625 24.73828125 C-75.47093515 18.05239086 -73.84641402 11.56750327 -72.78369141 4.19458008 C-71.81040688 -1.27584802 -71.81040688 -1.27584802 -69.47460938 -3.36303711 C-66.26982257 -5.25107831 -62.79966203 -6.59868523 -59.25 -7.6875 C-58.51265625 -7.91824219 -57.7753125 -8.14898437 -57.015625 -8.38671875 C-56.35046875 -8.58910156 -55.6853125 -8.79148438 -55 -9 C-38.4625668 -14.51247773 -15.40370189 -6.44224736 0 0 Z " fill="#88C7FC" transform="translate(480,263)"/>
<path d="M0 0 C3.16714194 0.96285223 5.90880791 1.06338405 9.2109375 0.96484375 C25.42572202 0.80213166 25.42572202 0.80213166 29.77734375 4.11328125 C31.31422287 6.75295913 32.2200069 9.05432773 33 12 C33.54720703 13.30710937 33.54720703 13.30710937 34.10546875 14.640625 C35 17 35 17 35 20 C34.0409375 20.433125 34.0409375 20.433125 33.0625 20.875 C30.84793921 21.82823451 30.84793921 21.82823451 30 24 C29.68772466 30.55778213 30.26605576 36.87033937 31 43.375 C32.52069998 57.39046739 33.35462425 69.03590056 24.3125 80.9375 C19.27586966 86.2881021 11.74364183 89.62050865 4.4609375 90.203125 C-3.8553161 90.32944784 -11.9897985 89.60284166 -20.25 88.6875 C-21.35037598 88.56987305 -22.45075195 88.45224609 -23.58447266 88.33105469 C-38.55999459 86.56816772 -50.36171815 81.79516224 -60.9140625 70.65234375 C-65.37747348 64.97695787 -70.76513022 57.05145844 -70.1875 49.5 C-69.8455361 47.98680975 -69.44072017 46.48743059 -69 45 C-68.7215625 43.83855469 -68.443125 42.67710937 -68.15625 41.48046875 C-65.28779129 30.2495276 -65.28779129 30.2495276 -61 27 C-57.77942439 26.188363 -55.08810117 26.88573669 -52 28 C-47.75571839 30.73404643 -43.92109012 33.81908446 -40 37 C-37.79131013 38.3058394 -37.79131013 38.3058394 -34.10546875 37.83984375 C-26.68523914 38.5986465 -22.05031618 45.35786621 -17.3125 50.5625 C-15.80457714 52.20682758 -14.29124044 53.84392725 -12.75737 55.46409607 C-11.37173177 56.92890201 -10.00997852 58.41619349 -8.6496582 59.90454102 C-6.13938025 62.25937193 -6.13938025 62.25937193 -2.82104492 62.40991211 C0.07754986 62.18701324 0.07754986 62.18701324 2.4375 60.4375 C4.30465171 58.02056167 4.30465171 58.02056167 3.94165039 54.70849609 C2.81404778 50.26766549 0.80463303 48.16874152 -2.50390625 45.2265625 C-3.64697552 44.15240343 -4.7891139 43.07725306 -5.93041992 42.0012207 C-6.82330215 41.17371811 -6.82330215 41.17371811 -7.73422241 40.32949829 C-28.19481114 21.2541463 -28.19481114 21.2541463 -31 8 C-30.60303688 1.60303688 -30.60303688 1.60303688 -28.125 -0.875 C-19.3550543 -5.51791243 -8.87430645 -3.15421942 0 0 Z " fill="#88C7FC" transform="translate(423,368)"/>
<path d="M0 0 C1.66015625 1.15234375 1.66015625 1.15234375 3.78515625 4.15234375 C4.32732169 10.24528879 3.3984067 14.39890192 0.62890625 19.80078125 C0.2788855 20.49005707 -0.07113525 21.17933289 -0.4317627 21.88949585 C-4.76946176 29.87639034 -11.08120753 35.69620863 -17.71484375 41.77734375 C-19.52627067 43.45206832 -21.33024832 45.13262558 -23.11730957 46.83334351 C-24.21550749 47.87750343 -25.32782171 48.90708582 -26.45593262 49.91885376 C-29.06872213 52.39287672 -30.16238697 53.74003096 -30.62304688 57.36083984 C-30.14972553 60.5976558 -29.69550225 62.00243972 -27.21484375 64.15234375 C-24.43377878 65.07353939 -24.43377878 65.07353939 -21.21484375 64.15234375 C-16.81408596 60.95298865 -12.99951745 56.99603993 -9.28515625 53.0390625 C-8.63417969 52.34876953 -7.98320312 51.65847656 -7.3125 50.94726562 C-5.99123583 49.53573688 -4.68395003 48.11099992 -3.390625 46.67382812 C1.0222708 42.05638982 4.21264374 40.36382825 10.54101562 39.50610352 C13.40606221 39.05446595 15.27749894 37.98973519 17.59765625 36.27734375 C18.33371094 35.75140625 19.06976563 35.22546875 19.828125 34.68359375 C21.4088103 33.44681005 22.92186606 32.12389202 24.41015625 30.77734375 C27.73871785 28.49990687 29.83599475 28.58817782 33.78515625 29.15234375 C37.01041765 31.01582812 38.43702411 32.3827885 39.97265625 35.77734375 C40.85205186 39.43021781 41.65163697 43.08140915 42.328125 46.77734375 C42.77070986 49.27682152 42.77070986 49.27682152 43.66015625 52.15234375 C44.01679739 60.71173109 38.28025605 68.10434889 32.78515625 74.15234375 C17.52710076 90.23426833 -5.28842569 91.90872385 -26.21484375 92.52734375 C-35.56252285 92.35628827 -43.64117651 89.94783984 -50.421875 83.29296875 C-59.77190072 72.12997508 -59.11779658 60.97309557 -57.97460938 47.2734375 C-56.65352585 33.0507085 -55.09240321 17.06195297 -45.4765625 5.71484375 C-41.57672783 3.02065745 -37.51251912 3.34374513 -32.89453125 3.32421875 C-29.09746219 3.14686096 -26.28009798 2.36252619 -22.71484375 1.08984375 C-15.50546298 -1.31034177 -7.32022677 -2.80156827 0 0 Z " fill="#88C7FB" transform="translate(289.21484375,365.84765625)"/>
<path d="M0 0 C1.04800781 -0.03673828 1.04800781 -0.03673828 2.1171875 -0.07421875 C5.59409287 -0.09389935 7.86691428 0.30314787 10.9375 1.9609375 C13.68945488 5.1819756 13.95111889 7.15789292 14 11.375 C10.90665162 25.99066193 -0.6151618 35.70303427 -11.06958008 45.46411133 C-11.64529755 46.00871002 -12.22101501 46.55330872 -12.81417847 47.1144104 C-13.9068201 48.14396735 -15.01069784 49.16177417 -16.12722778 50.16537476 C-18.64956016 52.53976042 -19.9472117 54.19648731 -20.93774414 57.54614258 C-21.22656353 60.50458582 -21.22656353 60.50458582 -19.5 63.3125 C-17.11393644 65.7348196 -17.11393644 65.7348196 -13.68554688 65.32446289 C-9.21752754 64.17342108 -7.63578207 62.61793533 -4.53125 59.24609375 C-3.53779619 58.20113786 -2.5443055 57.15621704 -1.55078125 56.11132812 C-0.0188208 54.46108951 1.50672214 52.80518031 3.02978516 51.14672852 C4.51544385 49.54016629 6.02206906 47.95552962 7.53125 46.37109375 C8.41361328 45.41388428 9.29597656 44.4566748 10.20507812 43.47045898 C13.72526405 40.83124202 15.69700601 41.10091799 20 41.375 C24.43682535 39.32091419 27.71704362 36.77111492 31.4375 33.625 C34.37825133 31.3004538 36.46430804 29.85313963 40.25 29.625 C44.87094382 30.54918876 46.05036431 31.75020419 49 35.375 C50.0782474 38.00383673 50.67960061 40.65934942 51.25 43.4375 C51.40984375 44.14455078 51.5696875 44.85160156 51.734375 45.58007812 C52.16903504 47.50888207 52.58530823 49.44180452 53 51.375 C53.26039063 52.06207031 53.52078125 52.74914062 53.7890625 53.45703125 C54.45167643 59.4819098 48.37086381 67.47273392 44.9140625 72.26953125 C35.03877949 83.87388006 21.62130183 90.32558478 6.49609375 91.69140625 C2.00043875 91.98526912 -2.49885758 92.1870848 -7 92.375 C-7.85303711 92.4157666 -8.70607422 92.4565332 -9.58496094 92.49853516 C-30.36090418 93.40637202 -30.36090418 93.40637202 -39.26171875 85.3203125 C-46.85652197 77.4391702 -48.50887266 70.13000887 -48.3125 59.5 C-48.3012207 58.49348389 -48.28994141 57.48696777 -48.27832031 56.44995117 C-47.96331117 38.98214143 -47.18183803 18.55683803 -34 5.375 C-31.92456055 4.90429688 -31.92456055 4.90429688 -29.38671875 4.59375 C-28.46826172 4.47386719 -27.54980469 4.35398438 -26.60351562 4.23046875 C-25.64123047 4.11316406 -24.67894531 3.99585938 -23.6875 3.875 C-21.79481716 3.64146218 -19.90284729 3.40205706 -18.01171875 3.15625 C-17.17084717 3.05376953 -16.32997559 2.95128906 -15.46362305 2.84570312 C-0.57498973 0.00106087 -0.57498973 0.00106087 0 0 Z " fill="#88C7FC" transform="translate(106,185.625)"/>
<path d="M0 0 C6.03325714 5.10103511 10.82662979 11.14896345 15.6875 17.33984375 C16.63055567 18.4849353 17.57596182 19.62809422 18.5234375 20.76953125 C30.89640539 35.83227477 34.30362443 48.94279871 32.6875 68.33984375 C31.17795268 76.78598273 26.41564608 85.02222402 20.6875 91.33984375 C19.37099922 92.03916336 18.03911502 92.71106791 16.6875 93.33984375 C16.70844727 92.63899658 16.72939453 91.93814941 16.75097656 91.21606445 C16.83433048 88.02830456 16.88622139 84.84077423 16.9375 81.65234375 C16.97101563 80.54955078 17.00453125 79.44675781 17.0390625 78.31054688 C17.17420202 71.93844646 17.17420202 71.93844646 14.859375 66.1328125 C11.38228338 63.26233578 8.11842968 62.97264104 3.671875 63.078125 C0.27494995 63.52614464 -1.02467557 64.81119569 -3.3125 67.33984375 C-4.98902488 69.94868003 -6.56149613 72.58805335 -8.078125 75.29296875 C-8.48546875 75.9684375 -8.8928125 76.64390625 -9.3125 77.33984375 C-9.6425 77.33984375 -9.9725 77.33984375 -10.3125 77.33984375 C-10.31796844 76.43235382 -10.31796844 76.43235382 -10.32354736 75.50653076 C-10.36534362 69.21213303 -10.43466882 62.91846644 -10.52001953 56.62451172 C-10.54825288 54.27530223 -10.56945558 51.92599734 -10.58349609 49.57666016 C-10.60489224 46.20034857 -10.65152737 42.82518708 -10.703125 39.44921875 C-10.70435364 38.39804871 -10.70558228 37.34687866 -10.70684814 36.26385498 C-10.73829441 30.61600724 -10.73829441 30.61600724 -13.15917969 25.67285156 C-16.087463 23.86010475 -17.93213465 23.83638508 -21.3125 24.33984375 C-23.52751791 25.97003899 -24.22909154 26.86730011 -24.71122742 29.59880066 C-24.72233047 30.48038345 -24.73343353 31.36196625 -24.74487305 32.27026367 C-24.76466721 33.27107468 -24.78446136 34.27188568 -24.80485535 35.30302429 C-24.81444023 36.92033195 -24.81444023 36.92033195 -24.82421875 38.5703125 C-24.84216995 39.6758699 -24.86012115 40.78142731 -24.87861633 41.92048645 C-24.93285427 45.4560666 -24.96665892 48.99151071 -25 52.52734375 C-25.03316109 54.92254503 -25.0676496 57.31772832 -25.10351562 59.71289062 C-25.18858846 65.58841969 -25.25688118 71.46396607 -25.3125 77.33984375 C-28.58338861 74.1464762 -30.75114131 71.11524952 -32.96875 67.14453125 C-34.572669 64.99043073 -35.80817105 64.2713605 -38.3125 63.33984375 C-43.62418294 62.91828161 -47.03655788 62.81847965 -51.3125 66.33984375 C-54.06112644 69.87379203 -53.60349376 74.06639252 -53.3125 78.33984375 C-53.1475 79.32984375 -52.9825 80.31984375 -52.8125 81.33984375 C-52.19109311 85.06828508 -52.24736683 88.56211982 -52.3125 92.33984375 C-53.6325 92.33984375 -54.9525 92.33984375 -56.3125 92.33984375 C-65.82294863 82.72301426 -69.3583504 69.24624274 -69.625 56.15234375 C-69.44688227 38.07339391 -59.11639706 25.7891877 -47.68261719 12.89355469 C-45.90590044 10.87876042 -44.17610301 8.82503174 -42.4375 6.77734375 C-31.08278396 -6.08950154 -14.68575811 -10.54298513 0 0 Z " fill="#88C7FB" transform="translate(187.3125,20.66015625)"/>
<path d="M0 0 C8.92433151 5.3337407 15.15887164 13.95496299 21.5 22 C22.27859375 22.96164063 23.0571875 23.92328125 23.859375 24.9140625 C35.13304641 39.252054 38.85746188 52.41529343 37.296875 70.33203125 C35.36104387 79.99014525 29.27238997 90.06242978 22.5 97 C20.5 95 20.5 95 20.3125 91.25 C20.39425269 87.7535002 20.92509444 84.44943337 21.5 81 C21.93634088 76.84241238 21.99322595 73.81029978 19.75 70.125 C16.44650078 67.00502851 14.6599968 66.15036996 10.125 65.5625 C5.62437834 66.10567848 3.33116992 67.61004654 0.5 71 C-1.20773393 73.61347132 -2.78335888 76.26010718 -4.30078125 78.98828125 C-4.69652344 79.65214844 -5.09226562 80.31601562 -5.5 81 C-5.83 81 -6.16 81 -6.5 81 C-6.50546844 80.05159492 -6.50546844 80.05159492 -6.51104736 79.08403015 C-6.5527987 72.51405845 -6.62209209 65.94479015 -6.70751953 59.37524414 C-6.73577715 56.92219064 -6.75696769 54.46904528 -6.77099609 52.01586914 C-6.79235872 48.49317221 -6.83897652 44.97158548 -6.890625 41.44921875 C-6.89185364 40.34913986 -6.89308228 39.24906097 -6.89434814 38.11564636 C-6.91406677 37.09481461 -6.9337854 36.07398285 -6.95410156 35.0222168 C-6.96298401 34.12286911 -6.97186646 33.22352142 -6.98101807 32.29692078 C-7.31567673 29.85482562 -7.31567673 29.85482562 -9.3427124 28.1822052 C-11.53779367 26.74628978 -11.53779367 26.74628978 -14.5625 27.0625 C-18.00087132 28.15985255 -18.68119612 28.96036253 -20.5 32 C-20.96630351 34.33369571 -20.96630351 34.33369571 -20.93237305 36.86035156 C-20.95216721 37.82104553 -20.97196136 38.7817395 -20.99235535 39.77154541 C-21.00194023 41.31548981 -21.00194023 41.31548981 -21.01171875 42.890625 C-21.02966995 43.95037537 -21.04762115 45.01012573 -21.06611633 46.10198975 C-21.1202702 49.48461944 -21.15413199 52.8671076 -21.1875 56.25 C-21.22066852 58.54429055 -21.25515773 60.83856241 -21.29101562 63.1328125 C-21.37599955 68.75508143 -21.44432802 74.37736856 -21.5 80 C-23.7835225 77.16892037 -25.9569998 74.36205913 -27.9375 71.3125 C-30.11892765 68.25318073 -31.71852515 66.83007985 -35.5 66 C-40.16185403 65.51439021 -42.7456459 66.18423443 -46.5 69 C-48.76598448 72.39897673 -48.73742654 73.56319173 -48.6953125 77.54296875 C-48.68886719 78.61611328 -48.68242187 79.68925781 -48.67578125 80.79492188 C-48.65902344 81.91447266 -48.64226562 83.03402344 -48.625 84.1875 C-48.61597656 85.31865234 -48.60695313 86.44980469 -48.59765625 87.61523438 C-48.57406862 90.41036828 -48.541153 93.20507845 -48.5 96 C-57.23119823 91.85209324 -60.30097084 82.60296685 -63.5 74 C-66.69706324 64.40881027 -65.71259026 50.10567588 -61.5 41 C-61.14421875 40.17242187 -60.7884375 39.34484375 -60.421875 38.4921875 C-56.36214837 30.10371622 -50.17761839 23.49602602 -43.97998047 16.64746094 C-42.15233888 14.61299616 -40.3898333 12.52648636 -38.625 10.4375 C-28.61466643 -0.90425724 -14.79919579 -6.79156892 0 0 Z " fill="#88C7FB" transform="translate(356.5,197)"/>
<path d="M0 0 C4.41524117 0.55844948 8.5624386 1.94237029 12.77197266 3.3359375 C16.16640961 4.28414876 19.08829874 4.50027724 22.60009766 4.578125 C26.55869694 4.83046599 28.77268268 5.15139566 31.53759766 8.078125 C39.99514111 20.39131326 43.8749881 38.42108671 42.10009766 53.265625 C41.08056641 56.09375 41.08056641 56.09375 40.10009766 58.265625 C37.50535678 57.82081228 35.19162189 57.30339207 32.75244141 56.296875 C14.41931011 49.16882395 -4.88531805 54.02577523 -22.89990234 59.265625 C-23.68300781 59.48943848 -24.46611328 59.71325195 -25.27294922 59.94384766 C-32.72694947 62.10972056 -39.40416771 64.70982768 -45.84912109 69.12890625 C-47.89990234 70.265625 -47.89990234 70.265625 -51.89990234 70.265625 C-53.11077751 68.08846541 -54.29265298 65.90225381 -55.46240234 63.703125 C-55.80464844 63.09404297 -56.14689453 62.48496094 -56.49951172 61.85742188 C-58.91059859 57.25443786 -59.11817068 54.46203023 -57.89990234 49.265625 C-57.63693359 48.00363281 -57.37396484 46.74164063 -57.10302734 45.44140625 C-56.78849609 44.16652344 -56.47396484 42.89164063 -56.14990234 41.578125 C-55.84568359 40.29550781 -55.54146484 39.01289063 -55.22802734 37.69140625 C-53.69374543 33.73386143 -52.60396534 32.30906757 -48.89990234 30.265625 C-45.55072275 29.70871754 -43.21209416 29.54083767 -40.17431641 31.21875 C-38.39815809 32.50531969 -36.71236449 33.86501719 -35.02490234 35.265625 C-29.52289525 39.64493059 -29.52289525 39.64493059 -22.77490234 41.015625 C-18.44800614 40.17816122 -15.9175873 39.53773119 -13.14990234 36.078125 C-11.56295782 32.50749982 -11.58970849 30.15937419 -11.89990234 26.265625 C-13.38372074 22.96340497 -13.38372074 22.96340497 -15.39990234 19.828125 C-18.40576502 14.50677055 -20.19695361 11.31853092 -18.89990234 5.265625 C-13.74242063 -1.3820109 -7.71283404 -0.61105505 0 0 Z " fill="#88C7FB" transform="translate(237.89990234375,185.734375)"/>
<path d="M0 0 C0.7734375 -0.00773437 1.546875 -0.01546875 2.34375 -0.0234375 C5.0885669 0.48375693 5.73606785 1.22920103 7.5 3.375 C8.58157349 5.86695862 8.58157349 5.86695862 9.59033203 8.88891602 C10.16925453 10.60117371 10.16925453 10.60117371 10.75987244 12.34802246 C11.17169266 13.59571411 11.58351288 14.84340576 12.0078125 16.12890625 C12.44987976 17.44635732 12.89277443 18.76353101 13.33644104 20.08044434 C14.5288012 23.62673098 15.71040008 27.17651538 16.88979721 30.72713089 C18.11728497 34.41754265 19.35332346 38.10508561 20.58911133 41.79272461 C21.08834788 43.28266413 21.58756964 44.7726086 22.08677673 46.26255798 C22.33453291 47.00198072 22.58228909 47.74140347 22.83755302 48.50323296 C23.59253153 50.75802724 24.34619904 53.01325634 25.09962463 55.26856995 C28.22392187 64.61423766 31.4013924 73.93937678 34.62890625 83.25 C35.4107528 85.5135531 36.19249417 87.77714253 36.97412109 90.04077148 C38.06465633 93.1980263 39.1582229 96.35400405 40.26348877 99.50613403 C47.54506029 120.28729371 50.06178825 138.94747081 50.37329102 160.94213867 C50.42287439 164.40361344 50.50389054 167.86359288 50.59281063 171.32425213 C50.67316133 174.65730245 50.72361012 177.99063315 50.77734375 181.32421875 C50.81045151 182.56064621 50.84355927 183.79707367 50.87767029 185.07096863 C50.88831009 186.22019302 50.89894989 187.36941742 50.90991211 188.5534668 C50.92751083 189.55999802 50.94510956 190.56652924 50.96324158 191.6035614 C50.37104565 195.1464961 48.96678172 196.81624175 46.5 199.375 C44.5 200.0390625 44.5 200.0390625 42.5 200 C41.84 200.01289062 41.18 200.02578125 40.5 200.0390625 C37.1541805 198.92814587 36.30357096 197.42275547 34.5 194.375 C33.90506822 190.30827591 33.96694722 186.26778694 33.99609375 182.1640625 C33.98667252 180.96373383 33.97725128 179.76340515 33.96754456 178.52670288 C33.93887546 174.68429604 33.93581448 170.84250508 33.9375 167 C33.91395787 142.29959818 30.64372537 122.85534326 22.6875 99.5 C21.92520588 97.24032049 21.16365976 94.98038851 20.40283203 92.72021484 C18.11489526 85.93403224 15.80926117 79.15395061 13.5 72.375 C12.81555238 70.36329488 12.13114326 68.35157667 11.44677734 66.33984375 C9.59262789 60.89216631 7.73483279 55.44573954 5.875 50 C5.58593781 49.15352905 5.29687561 48.30705811 4.99905396 47.43493652 C2.3764677 39.75764908 -0.25008859 32.0822098 -2.921875 24.421875 C-3.57308108 22.53130662 -4.22414124 20.64068797 -4.875 18.75 C-5.15553223 17.96318848 -5.43606445 17.17637695 -5.72509766 16.36572266 C-7.24708987 11.90882043 -8.0227704 8.0799336 -7.5 3.375 C-5.50624801 0.24378694 -3.59184138 -0.03591841 0 0 Z " fill="#010101" transform="translate(102.5,312.625)"/>
<path d="M0 0 C6.23280277 5.36131353 9.54062422 11.14784331 10.3125 19.30078125 C10.62735949 28.46122457 9.20694841 35.03248314 3.625 42.3125 C-1.56024903 47.62120734 -6.92965202 50.63640743 -14.3671875 51.30078125 C-25.3886534 51.33760129 -31.82893102 50.04435507 -39.9453125 42.36328125 C-45.46122915 36.01892845 -47.82629221 28.98563426 -47.33984375 20.62109375 C-46.11432866 11.16913257 -41.98421371 5.47203804 -35 -1 C-24.05363038 -9.25321519 -10.8113711 -7.24870815 0 0 Z " fill="#040302" transform="translate(361,320)"/>
<path d="M0 0 C2.328125 1.60546875 2.328125 1.60546875 4.328125 4.60546875 C4.14802472 7.96734068 3.90924546 10.60465017 2.203125 13.54296875 C-0.83745658 15.26596498 -3.24503438 14.95396102 -6.671875 14.60546875 C-7.620625 14.11046875 -8.569375 13.61546875 -9.546875 13.10546875 C-13.67993963 11.12159773 -17.16356375 10.71990761 -21.671875 11.60546875 C-24.73836134 13.33036731 -27.07472631 15.41117137 -28.671875 18.60546875 C-29.22788925 23.67340191 -29.23019133 27.52734066 -26.859375 32.10546875 C-24.65814297 34.6211625 -23.02193517 36.40745992 -19.62109375 36.90625 C-14.40633385 36.93326948 -11.33732805 36.09371038 -6.671875 33.60546875 C-3.609375 33.10546875 -3.609375 33.10546875 -0.671875 33.60546875 C2.3380327 35.89561591 4.02596403 37.39682489 4.953125 41.10546875 C3.87186875 45.43049374 1.12525787 47.4327634 -2.515625 49.80859375 C-9.90685535 53.72484267 -18.58074966 54.16877626 -26.546875 51.72265625 C-33.97634942 48.30237992 -39.63667578 43.44616708 -43.109375 35.98046875 C-46.12184848 27.3994837 -45.89088947 18.16031576 -42.05859375 9.890625 C-38.31614579 3.72349244 -33.05927124 -1.17034542 -26.27734375 -3.76171875 C-16.55040194 -6.12418438 -8.70114124 -4.71117942 0 0 Z " fill="#040302" transform="translate(185.671875,139.39453125)"/>
<path d="M0 0 C19.82623183 -1.63499755 19.82623183 -1.63499755 24.7265625 2.05078125 C26.25810057 4.70152022 27.19131238 7.05345202 28 10 C28.36609375 10.87269531 28.7321875 11.74539063 29.109375 12.64453125 C30 15 30 15 30 18 C29.0409375 18.433125 29.0409375 18.433125 28.0625 18.875 C25.84793921 19.82823451 25.84793921 19.82823451 25 22 C24.68772466 28.55778213 25.26605576 34.87033937 26 41.375 C27.52069998 55.39046739 28.35462425 67.03590056 19.3125 78.9375 C14.91786575 83.60608548 8.3142768 86.90935219 2 88 C-0.4157906 88.06831987 -2.83334713 88.08487642 -5.25 88.0625 C-6.51328125 88.05347656 -7.7765625 88.04445313 -9.078125 88.03515625 C-10.52445312 88.01775391 -10.52445312 88.01775391 -12 88 C-12 87.67 -12 87.34 -12 87 C-11.21496094 87.020625 -10.42992187 87.04125 -9.62109375 87.0625 C-3.3700137 86.98887601 -3.3700137 86.98887601 2.21484375 84.50390625 C9.6698324 76.39640219 12.17989202 66.27559264 12.125 55.5625 C12.12886719 54.81162109 12.13273437 54.06074219 12.13671875 53.28710938 C12.12981293 49.36114976 11.81432282 45.84952604 11 42 C10.85098085 39.48047247 10.72853456 36.95930616 10.625 34.4375 C9.89706525 21.48497681 6.10130317 11.2999478 0 0 Z " fill="#5EB3FA" transform="translate(428,370)"/>
<path d="M0 0 C4.86404344 0.99082366 8.70602717 2.28576919 13.0625 4.6875 C17.48329169 7.00994356 20.06256626 7.28373277 25 6 C26.32 6 27.64 6 29 6 C33.12136227 10.90028001 35.64993646 16.78970774 37 23 C36.030625 23.61875 35.06125 24.2375 34.0625 24.875 C30.97164638 26.65678846 30.97164638 26.65678846 30 29 C29.76139355 30.7456235 29.53882443 32.49345114 29.32421875 34.2421875 C28.20598319 41.14948217 25.70014129 47.03886352 22.67944336 53.31884766 C21.81404466 55.12178192 20.97630058 56.93790377 20.13867188 58.75390625 C12.00049354 76.01327169 2.77257255 86.89289964 -15 94 C-17.9921875 94.7265625 -17.9921875 94.7265625 -20 95 C-17.45134439 92.37638393 -15.04371108 90.03325843 -12.125 87.8125 C-4.55076014 81.56929307 -0.11328914 71.88990881 4.125 63.25 C4.64416992 62.19522461 5.16333984 61.14044922 5.69824219 60.05371094 C15.24665423 40.48276601 15.24665423 40.48276601 13.375 19.3125 C10.3060357 11.79733301 5.99058374 5.46200282 0 0 Z " fill="#5FB5FC" transform="translate(294,80)"/>
<path d="M0 0 C6.08166601 16.34652861 11.66000481 32.84385687 17.1479187 49.3968811 C22.46162123 65.42384233 27.86610164 81.41727754 33.34448242 97.38867188 C33.88856928 98.97523979 34.43259763 100.56182776 34.9765625 102.1484375 C35.2337355 102.89845032 35.49090851 103.64846313 35.75587463 104.42120361 C38.21323361 111.60001398 40.61501668 118.79684152 43 126 C35.61195726 126.49253618 35.61195726 126.49253618 33.02832031 124.41308594 C30.57786162 121.49778337 29.52207003 118.57367485 28.40625 115 C28.17854919 114.30553268 27.95084839 113.61106537 27.71624756 112.89555359 C26.96640783 110.6004788 26.23347999 108.30034988 25.5 106 C24.9697265 104.3691236 24.43812728 102.73867773 23.90527344 101.10864258 C22.80201772 97.72987554 21.70445394 94.34934271 20.61132812 90.96728516 C18.43508886 84.24431835 16.20478252 77.53959413 13.96716309 70.83685303 C13.24650875 68.67703664 12.52792773 66.51653834 11.80957031 64.35595703 C8.80836867 55.34220873 5.76008239 46.34513286 2.6875 37.35546875 C2.31961365 36.278452 1.95172729 35.20143524 1.57269287 34.09178162 C-0.25408269 28.74544953 -2.08466924 23.40046559 -3.92089844 18.05737305 C-4.58798239 16.10859261 -5.25497891 14.15978223 -5.921875 12.2109375 C-6.38968384 10.85581306 -6.38968384 10.85581306 -6.86694336 9.47331238 C-7.14900635 8.64729019 -7.43106934 7.82126801 -7.72167969 6.97021484 C-7.96972351 6.24828949 -8.21776733 5.52636414 -8.47332764 4.78256226 C-9 3 -9 3 -9 1 C-5.846632 0.29925156 -3.27275026 0 0 0 Z " fill="#3CBE9F" transform="translate(117,291)"/>
<path d="M0 0 C6.22770742 -0.81943519 10.88508354 1.73854471 16 5 C22.57287575 10.39000201 27.76384917 17.35685626 33 24 C33.77859375 24.96164063 34.5571875 25.92328125 35.359375 26.9140625 C46.63304641 41.252054 50.35746188 54.41529343 48.796875 72.33203125 C46.86104387 81.99014525 40.77238997 92.06242978 34 99 C32 97 32 97 31.8125 93.25 C31.87053523 90.76341374 32.08093176 88.52452589 32.5 86.0625 C33.06451727 82.60483174 33.03112713 79.34893118 32.9375 75.85546875 C33 74 33 74 34 73 C35.044037 61.54151389 35.17652799 49.46154608 30 39 C29.54882812 38.05769531 29.09765625 37.11539063 28.6328125 36.14453125 C24.49781117 28.35797402 18.93960937 22.0306781 13.1015625 15.50390625 C10.00916907 12.04523475 7.14627384 8.44942306 4.3671875 4.734375 C3.01574142 3.01996911 1.57460813 1.50938767 0 0 Z " fill="#5EB4FA" transform="translate(345,195)"/>
<path d="M0 0 C9.69820329 -0.7428411 17.06494235 1.22341914 24.5625 7.5625 C29.54839801 12.30390564 33.75858252 17.59806438 38 23 C38.94305567 24.14509155 39.88846182 25.28825047 40.8359375 26.4296875 C53.20890539 41.49243102 56.61612443 54.60295496 55 74 C53.49045268 82.44613898 48.72814608 90.68238027 43 97 C41.02 97.99 41.02 97.99 39 99 C39 90.75 39 82.5 39 74 C39.66 74 40.32 74 41 74 C42.19376005 48.10867083 34.61561233 32.82435649 17.48583984 13.66503906 C15.57457123 11.52326253 13.69325023 9.35607993 11.8125 7.1875 C7.96378509 2.77365733 6.02328037 1.66925337 0 1 C0 0.67 0 0.34 0 0 Z " fill="#5EB3F9" transform="translate(165,15)"/>
<path d="M0 0 C11.17353075 2.91483411 18.98888199 7.87566249 25.17578125 17.90625 C28.14384382 24.5457075 28.52743659 32.35277925 26.26464844 39.23730469 C23.88414298 45.33750636 20.94852233 51.15959486 18 57 C17.15172841 58.74188797 16.30406583 60.48407267 15.45703125 62.2265625 C7.54978472 78.1865783 -1.95354812 87.75453272 -19 94 C-19.66 94 -20.32 94 -21 94 C-21 93.34 -21 92.68 -21 92 C-19.56640625 90.9140625 -19.56640625 90.9140625 -17.5625 89.625 C-3.99723709 79.49848381 2.31715364 62.01754891 9 47 C9.511073 45.8550708 9.511073 45.8550708 10.0324707 44.68701172 C12.00347199 39.91708337 12.51134585 35.70931583 12.4375 30.625 C12.42920166 29.88185547 12.42090332 29.13871094 12.41235352 28.37304688 C12.11559961 18.68260633 8.70634785 12.24667594 2.48828125 4.91015625 C1 3 1 3 0 0 Z " fill="#5FB4FB" transform="translate(470,260)"/>
<path d="M0 0 C2.01586684 0.96761608 4.01753602 1.96567096 6 3 C10.66280399 3.38123917 10.66280399 3.38123917 15 2 C17.90262684 7.80525367 19.2174128 12.90697419 17.3203125 19.28515625 C16.60624296 21.21314401 15.80988813 23.11026104 15 25 C14.41992188 24.89300781 13.83984375 24.78601563 13.2421875 24.67578125 C7.6217845 23.81324416 5.10298858 24.34219345 0 27 C-3.81798657 27.67091431 -7.35294804 27.88122525 -10.83984375 26.015625 C-14.50190904 23.11462463 -16.64981357 20.23382079 -17.37109375 15.6328125 C-17.48778907 11.22584799 -17.56332413 8.01682108 -14.6875 4.5 C-9.74093 -0.10146046 -6.53564757 -0.77617845 0 0 Z " fill="#FCC144" transform="translate(173,150)"/>
<path d="M0 0 C3.95751073 -0.310393 6.33055016 -0.38679324 9.8125 1.625 C13.92321697 6.08806413 14.48089214 11.82243508 15.54296875 17.625 C15.98555361 20.12447777 15.98555361 20.12447777 16.875 23 C17.23164114 31.55938734 11.4950998 38.95200514 6 45 C-0.96885946 52.34514776 -9.86830357 57.70723161 -20 59 C-19.34 58.34 -18.68 57.68 -18 57 C-17.54496094 56.53980469 -17.08992188 56.07960938 -16.62109375 55.60546875 C-15.4668117 54.46231231 -14.28959926 53.34211348 -13.09765625 52.23828125 C-3.79595748 43.43648184 1.71477381 32.60268303 4 20 C3.34 20 2.68 20 2 20 C1.27413001 17.42046203 0.56904206 14.83810522 -0.125 12.25 C-0.43630859 11.15558594 -0.43630859 11.15558594 -0.75390625 10.0390625 C-2.19758648 4.56303404 -2.19758648 4.56303404 -1.1171875 1.484375 C-0.56417969 0.74960937 -0.56417969 0.74960937 0 0 Z " fill="#5FB4FA" transform="translate(316,395)"/>
<path d="M0 0 C3.50615537 0.90338778 4.9345162 2.76402751 7.16796875 5.55859375 C8.24353454 8.18856596 8.84754424 10.84282079 9.41796875 13.62109375 C9.5778125 14.32814453 9.73765625 15.03519531 9.90234375 15.76367188 C10.33700379 17.69247582 10.75327698 19.62539827 11.16796875 21.55859375 C11.42835938 22.24566406 11.68875 22.93273437 11.95703125 23.640625 C12.61964518 29.66550355 6.53883256 37.65632767 3.08203125 42.453125 C-3.82619978 50.57091994 -12.54050838 56.61815864 -22.83203125 59.55859375 C-23.82203125 59.22859375 -24.81203125 58.89859375 -25.83203125 58.55859375 C-25.28675781 58.1925 -24.74148437 57.82640625 -24.1796875 57.44921875 C-11.71143833 48.49765524 -3.9292505 35.48155924 -0.83203125 20.55859375 C-1.82203125 20.22859375 -2.81203125 19.89859375 -3.83203125 19.55859375 C-4.77166785 16.71597072 -5.50397745 14.03076801 -6.14453125 11.12109375 C-6.43553711 9.93676758 -6.43553711 9.93676758 -6.73242188 8.72851562 C-7.19937452 6.69232436 -7.5261104 4.62512032 -7.83203125 2.55859375 C-5.30409213 0.03065463 -3.4598896 0.20745953 0 0 Z " fill="#5EB4FA" transform="translate(147.83203125,215.44140625)"/>
<path d="M0 0 C9.27137512 -1.03931785 9.27137512 -1.03931785 12.890625 1.13671875 C23.23757076 12.38221506 25.36358541 30.83007185 25.30078125 45.484375 C24.96874186 48.26143168 24.14683055 50.45961042 23 53 C18.72750335 52.37169167 15.45866941 51.64486484 12 49 C10.85053097 44.91678162 10.64685495 40.7832825 10.375 36.5625 C9.49122038 24.50028912 7.29447235 14.17102982 0.953125 3.7421875 C0 2 0 2 0 0 Z " fill="#5FB5FC" transform="translate(255,191)"/>
<path d="M0 0 C4.62994259 1.72488057 7.62722164 3.61948611 10 8 C10.65956843 12.92082513 10.64957582 17.35896635 8.8125 22 C5.06065266 26.13996947 2.09868457 27.222064 -3.4375 27.5 C-7.14561016 27.39505349 -9.60869957 27.11879246 -12.5625 24.8125 C-15.89710615 20.96487752 -16.82619386 18.59322292 -17.375 13.5625 C-16.78688714 7.97542783 -14.40354499 5.18521577 -10.1875 1.625 C-6.37985365 -0.31615304 -4.22575274 -0.52821909 0 0 Z " fill="#FABF42" transform="translate(346,329)"/>
<path d="M0 0 C-0.35273483 0.43393066 -0.70546967 0.86786133 -1.06889343 1.31494141 C-5.56110751 7.50666772 -5.73335283 12.8919861 -5.70703125 20.375 C-5.72215256 21.5400708 -5.73727386 22.7051416 -5.75285339 23.90551758 C-5.7956263 27.60387688 -5.804559 31.3014183 -5.8125 35 C-5.83565217 37.51694867 -5.86101899 40.033878 -5.88867188 42.55078125 C-5.95142242 48.70059282 -5.98383887 54.84989667 -6 61 C-9.3 60.67 -12.6 60.34 -16 60 C-16.14865495 53.00749964 -16.25736566 46.01592504 -16.32958984 39.0222168 C-16.35970659 36.6447751 -16.40060932 34.267444 -16.45263672 31.89038086 C-16.52567251 28.46700721 -16.55950887 25.0451061 -16.5859375 21.62109375 C-16.61690521 20.56353378 -16.64787292 19.50597382 -16.67977905 18.41636658 C-16.68259093 12.20852593 -15.96262244 8.73654845 -11.51315308 4.27833557 C-9.67977786 2.72947129 -7.93707146 1.49882003 -5.75 0.5 C-5.08484375 0.1803125 -4.4196875 -0.139375 -3.734375 -0.46875 C-2 -1 -2 -1 0 0 Z " fill="#3BBA9C" transform="translate(174,444)"/>
<path d="M0 0 C5.10381075 0.51038107 10.25748988 1.29925897 14 5 C15.16155879 8.35309355 15.72637567 11.61527675 16.29296875 15.1171875 C17.82042814 23.50555563 21.08976796 31.45234281 25 39 C20.82371956 39.67890273 17.15234095 39.91465833 13 39 C4.97338736 31.52548241 0.42732637 16.51803907 -0.1171875 5.6640625 C-0.12381351 3.77564924 -0.06862464 1.88717758 0 0 Z " fill="#5EB4FA" transform="translate(89,76)"/>
<path d="M0 0 C1.7726041 0.61996001 3.54302667 1.24615993 5.3125 1.875 C6.79169922 2.39707031 6.79169922 2.39707031 8.30078125 2.9296875 C11 4 11 4 14 6 C14.51953125 8.51171875 14.51953125 8.51171875 14.8125 11.6875 C15.86385221 19.76583881 18.78634363 26.59461792 22 34 C22.66 35.65 23.32 37.3 24 39 C18.555 39.495 18.555 39.495 13 40 C3.8197399 27.32249795 -0.32311122 15.50933848 0 0 Z " fill="#5EB3F9" transform="translate(263,255)"/>
<path d="M0 0 C0.90105469 0.01804687 1.80210937 0.03609375 2.73046875 0.0546875 C3.41753906 0.07789063 4.10460937 0.10109375 4.8125 0.125 C4.53535156 0.66769531 4.25820313 1.21039063 3.97265625 1.76953125 C3.61042969 2.48496094 3.24820312 3.20039063 2.875 3.9375 C2.51535156 4.64519531 2.15570313 5.35289062 1.78515625 6.08203125 C-1.24793812 12.45274755 -0.97133097 18.66009127 1.3125 25.25 C3.60710816 30.57083051 7.20413608 33.74702451 11.8125 37.125 C8.8125 38.125 8.8125 38.125 6.61328125 37.26953125 C5.79214844 36.82996094 4.97101563 36.39039063 4.125 35.9375 C3.24070312 35.47085938 2.35640625 35.00421875 1.4453125 34.5234375 C0.57648438 34.06195313 -0.29234375 33.60046875 -1.1875 33.125 C-2.62348294 32.43433692 -4.06083734 31.74651267 -5.5 31.0625 C-8.74395412 29.45039298 -11.45152844 27.51897512 -14.1875 25.125 C-14.1875 28.095 -14.1875 31.065 -14.1875 34.125 C-14.5175 34.125 -14.8475 34.125 -15.1875 34.125 C-15.5175 29.835 -15.8475 25.545 -16.1875 21.125 C-15.8575 21.125 -15.5275 21.125 -15.1875 21.125 C-15.18492187 20.42375 -15.18234375 19.7225 -15.1796875 19 C-14.88436156 11.75467029 -13.37731453 7.27608457 -8.1875 2.125 C-4.87379 -0.08414 -3.8428979 -0.09981553 0 0 Z " fill="#F8D6A4" transform="translate(386.1875,312.875)"/>
<path d="M0 0 C-0.3609375 0.57105469 -0.721875 1.14210937 -1.09375 1.73046875 C-5.15467928 8.82581463 -6.09987218 14.89622478 -5 23 C-3.22862562 29.3873676 0.7905161 33.13678722 6 37 C5.01 37.66 4.02 38.32 3 39 C3 38.34 3 37.68 3 37 C2.18208984 36.76216797 2.18208984 36.76216797 1.34765625 36.51953125 C-6.44470232 34.10856219 -14.5425414 31.24337022 -19 24 C-20.7533448 19.76275007 -20.90891223 14.40071382 -19.28125 10.1015625 C-18.29997433 8.28936792 -17.21778425 6.66134805 -16 5 C-15.319375 4.030625 -14.63875 3.06125 -13.9375 2.0625 C-9.50918598 -1.04674176 -5.24653291 -0.41347457 0 0 Z " fill="#FAD8A4" transform="translate(218,133)"/>
<path d="M0 0 C9.648551 -0.85807272 9.648551 -0.85807272 13.625 2 C16.19293847 5.24371175 16.43232262 6.77019162 16.30273438 10.81982422 C15.77745472 14.60268497 14.21130012 17.71521962 12.4375 21.0625 C11.90092773 22.10857422 11.90092773 22.10857422 11.35351562 23.17578125 C8.59134493 28.35911391 5.54091639 32.21590301 1 36 C-3.875 33.125 -3.875 33.125 -5 32 C-4.89095338 26.98385553 -3.5028231 23.93280672 -0.9375 19.625 C1.9633671 14.56065648 3.0180428 10.7727654 2 5 C1.13346586 2.06919326 1.13346586 2.06919326 0 0 Z " fill="#5EB3F9" transform="translate(277,365)"/>
<path d="M0 0 C8.79499966 -0.61479609 8.79499966 -0.61479609 13.0625 1.5625 C15.65664773 4.8261052 15.82805572 6.83559337 16 11 C15.17348343 14.0121379 13.89526915 16.71225471 12.5 19.5 C12.13777344 20.24886475 11.77554688 20.99772949 11.40234375 21.76928711 C8.67789455 27.1808074 5.74079062 31.14810762 1 35 C-0.98 34.34 -2.96 33.68 -5 33 C-6.2353615 29.45593012 -6.04650869 28.11088585 -4.56640625 24.58203125 C-3.9058887 23.32158798 -3.23757371 22.06520753 -2.5625 20.8125 C0.47784452 14.79367844 2.20478686 9.84537991 1 3 C0.67 2.01 0.34 1.02 0 0 Z " fill="#5FB5FB" transform="translate(104,186)"/>
<path d="M0 0 C-0.433125 1.051875 -0.433125 1.051875 -0.875 2.125 C-3.0933411 7.79409391 -4.24108922 12.22227153 -4.125 18.375 C-4.09792969 20.24285156 -4.09792969 20.24285156 -4.0703125 22.1484375 C-4.04710937 23.08945313 -4.02390625 24.03046875 -4 25 C-4.99 24.690625 -5.98 24.38125 -7 24.0625 C-10.97731122 22.91566793 -14.88767379 22.43287644 -19 22 C-19.62329486 12.26967471 -19.62329486 12.26967471 -17.3125 7.5625 C-11.57703417 1.20698381 -8.23699392 -0.13285474 0 0 Z " fill="#F8D6A3" transform="translate(209,179)"/>
<path d="M0 0 C-0.3609375 0.67804688 -0.721875 1.35609375 -1.09375 2.0546875 C-5.1685374 10.2269 -6.37973705 17.07598606 -4 26 C-4.99 25.525625 -5.98 25.05125 -7 24.5625 C-10.99189495 22.83186252 -14.68114582 22.37884686 -19 22 C-19.61834421 11.38509103 -19.61834421 11.38509103 -17.4375 6.5 C-12.00152477 0.92464079 -7.7384985 -0.54305253 0 0 Z " fill="#FBD9A5" transform="translate(383,358)"/>
<path d="M0 0 C2.90930596 5.61080434 5.25832544 10.61157855 4 17 C2.8709573 20.11460055 1.52425821 23.06035917 0 26 C-3.89666951 25.17092138 -6.07739358 23.76878503 -9 21 C-11.25059535 17.03466534 -11.47404865 13.50346218 -11 9 C-8.41116961 4.19217212 -5.78646184 0 0 0 Z " fill="#FACC58" transform="translate(340,330)"/>
<path d="M0 0 C1.98802578 0.70465469 3.96533728 1.43959698 5.9375 2.1875 C7.03964844 2.59355469 8.14179688 2.99960937 9.27734375 3.41796875 C12 5 12 5 12.87890625 7.67578125 C12.93884766 8.82626953 12.93884766 8.82626953 13 10 C9.2262412 13.66893217 5.87571019 15.56207615 0.9375 17.4375 C-4.34290018 19.52738543 -7.05814468 21.13072224 -10 26 C-10.86542699 28.72113503 -10.86542699 28.72113503 -11 31 C-13.99480917 31.8723412 -16.63575911 32.10829766 -19.75 32.0625 C-20.54921875 32.05347656 -21.3484375 32.04445313 -22.171875 32.03515625 C-22.77515625 32.02355469 -23.3784375 32.01195312 -24 32 C-24 30.35 -24 28.7 -24 27 C-22.88625 26.443125 -21.7725 25.88625 -20.625 25.3125 C-19.90054688 24.94640625 -19.17609375 24.5803125 -18.4296875 24.203125 C-16.75951816 23.37609581 -15.07617392 22.57531577 -13.3828125 21.796875 C-7.66431242 19.11579781 -3.91067393 16.82134786 -1 11 C-0.7724985 9.12943209 -0.59037189 7.25314042 -0.4375 5.375 C-0.35371094 4.37210937 -0.26992188 3.36921875 -0.18359375 2.3359375 C-0.09271484 1.17964844 -0.09271484 1.17964844 0 0 Z " fill="#5EB3FA" transform="translate(272,323)"/>
<path d="M0 0 C2.0625 0.9375 2.0625 0.9375 3.8125 3.3125 C5.94325826 9.49169896 5.94325826 15.38330104 3.8125 21.5625 C2.0625 23.9375 2.0625 23.9375 0.1875 25.0625 C-3.13537565 24.86703673 -4.60521453 23.20840954 -6.9375 20.9375 C-9.64294215 16.49755835 -9.74192336 11.99501319 -8.9375 6.9375 C-7.02541962 3.39055535 -4.33137026 -0.13972162 0 0 Z " fill="#FCCE59" transform="translate(164.9375,151.0625)"/>
<path d="M0 0 C1.54345559 6.17382237 1.98028932 11.87847407 0 18 C-4.06827117 21.47532477 -9.47741189 25 -15 25 C-15 19.39 -15 13.78 -15 8 C-10.05 5.36 -5.1 2.72 0 0 Z " fill="#3DBE9F" transform="translate(217,403)"/>
<path d="M0 0 C2.31853933 0.92442407 4.62902749 1.86353608 6.9375 2.8125 C7.59685547 3.07353516 8.25621094 3.33457031 8.93554688 3.60351562 C10.66028184 4.319944 12.3349412 5.1540925 14 6 C15 9 15 9 14.10546875 11.44921875 C11.10274433 15.08702775 7.65985414 16.1969533 3.3125 17.8125 C2.51521484 18.12380859 1.71792969 18.43511719 0.89648438 18.75585938 C-1.06333102 19.51866178 -3.0309572 20.26134286 -5 21 C-3.96848842 18.77828274 -3.01623528 17.01839737 -1.38671875 15.171875 C0.55427601 12.13189447 0.29452819 9.81760626 0.1875 6.25 C0.16042969 5.07953125 0.13335937 3.9090625 0.10546875 2.703125 C0.07066406 1.81109375 0.03585938 0.9190625 0 0 Z " fill="#5EB3F9" transform="translate(97,143)"/>
<path d="M0 0 C0.33 0 0.66 0 1 0 C1.17015625 0.71285156 1.3403125 1.42570312 1.515625 2.16015625 C3.00781155 8.05746799 4.70282832 12.88369912 8 18 C1.64696693 17.74889197 -3.02052086 17.35704425 -8 13 C-9.25 10.8125 -9.25 10.8125 -10 9 C-10.66 8.67 -11.32 8.34 -12 8 C-11.20335937 7.63648438 -11.20335937 7.63648438 -10.390625 7.265625 C-6.23315508 5.29310278 -3.1099503 3.48314433 0 0 Z " fill="#F6D5A2" transform="translate(361,288)"/>
<path d="M0 0 C0.33 0 0.66 0 1 0 C1.061875 1.299375 1.12375 2.59875 1.1875 3.9375 C1.76059356 9.40793853 4.0714003 13.42879088 7 18 C-0.46505961 18.59720477 -4.04738996 17.2938417 -9.875 12.4375 C-11 11 -11 11 -11 8 C-10.45730469 7.75765625 -9.91460937 7.5153125 -9.35546875 7.265625 C-5.28049475 5.35662817 -2.40723991 3.96486573 0 0 Z " fill="#F5D3A0" transform="translate(188,108)"/>
<path d="M0 0 C-0.45375 0.53625 -0.9075 1.0725 -1.375 1.625 C-3.21688312 4.31698302 -4.07971933 6.88520388 -5 10 C-9.4378561 11.11165232 -13.76956386 11.11527763 -18.3125 11.0625 C-19.05306641 11.05798828 -19.79363281 11.05347656 -20.55664062 11.04882812 C-22.37112899 11.03712175 -24.18557534 11.01918898 -26 11 C-26 10.67 -26 10.34 -26 10 C-23.36 10 -20.72 10 -18 10 C-17.97679688 9.24460938 -17.95359375 8.48921875 -17.9296875 7.7109375 C-17 5 -17 5 -13.9453125 3.1640625 C-12.68015616 2.63094631 -11.40611925 2.11852498 -10.125 1.625 C-9.48691406 1.35300781 -8.84882812 1.08101562 -8.19140625 0.80078125 C-3.42222744 -1.14074248 -3.42222744 -1.14074248 0 0 Z " fill="#5EAEF1" transform="translate(92,165)"/>
<path d="M0 0 C1.32 0 2.64 0 4 0 C5.15879664 2.18144224 6.30187378 4.36903017 7.4375 6.5625 C7.76298828 7.17158203 8.08847656 7.78066406 8.42382812 8.40820312 C10.60371221 12.65560614 11.56519369 16.24162667 12 21 C5.80895282 15.90149056 1.58018625 7.84449602 0 0 Z " fill="#5FB3F8" transform="translate(293,270)"/>
<path d="M0 0 C3.465 1.98 3.465 1.98 7 4 C3.98968256 4.93423645 3.13349732 5.04449911 0 4 C0 2.68 0 1.36 0 0 Z " fill="#4E93CC" transform="translate(424,350)"/>
</svg>
